<?xml version="1.0" encoding="utf-8"?>
<!-- Generator: Adobe Illustrator 17.1.0, SVG Export Plug-In . SVG Version: 6.00 Build 0)  -->
<!DOCTYPE svg PUBLIC "-//W3C//DTD SVG 1.1//EN" "http://www.w3.org/Graphics/SVG/1.1/DTD/svg11.dtd">
<svg version="1.1" xmlns="http://www.w3.org/2000/svg" xmlns:xlink="http://www.w3.org/1999/xlink" x="0px" y="0px"
	 viewBox="0 0 400 400" style="enable-background:new 0 0 400 400;" xml:space="preserve">
<style type="text/css">
	.st0{fill:#1282BF;}
	.st1{fill:none;stroke:#1282BF;stroke-miterlimit:10;}
</style>
<g id="Layer_1">
	<g>
		<path class="st0" d="M35.396,53.488c-2.341-0.005-4.681-0.002-7.022-0.002c-0.829,0-1.659,0-2.488,0c0.829,0,1.659,0,2.488,0
			C30.714,53.486,33.055,53.484,35.396,53.488z"/>
		<path class="st0" d="M28.372,21.09c-15.32-0.03-28.087,12.152-28.15,28.106c-0.06,15.189,12.08,28.047,28.05,28.146
			c15.261,0.095,27.691-12.146,28.156-27.055C57.115,34.793,44.769,21.122,28.372,21.09z M41.347,63.016
			c-0.002,1.893-1.31,3.179-3.209,3.18c-6.581,0.003-13.162,0.002-19.742-0.001c-1.657-0.001-3.023-1.338-3.034-3.012
			c-0.019-2.945-0.009-5.89-0.01-8.835c-0.001-1.62,0-3.24,0-4.859c-0.006,0-0.011,0-0.017,0c0-1.969,0.001-3.939,0-5.908
			c-0.001-1.767-0.011-3.534-0.007-5.301c0.002-1.122-0.024-2.248,0.047-3.366c0.088-1.38,1.484-2.663,2.87-2.667
			c4.645-0.013,9.291-0.022,13.936,0.021c0.463,0.004,1.026,0.268,1.366,0.594c2.42,2.322,4.795,4.692,7.184,7.048
			c0.428,0.423,0.622,0.928,0.622,1.538C41.345,48.638,41.353,55.827,41.347,63.016z"/>
		<path class="st0" d="M38.455,42.131c-1.198,0.029-2.397,0.029-3.595,0.014c-2.254-0.029-3.544-1.363-3.531-3.616
			c0.006-1.143-0.029-2.287,0.007-3.429c0.017-0.546-0.178-0.68-0.698-0.677c-3.945,0.02-7.891,0.012-11.836,0.015
			c-0.949,0.001-1.25,0.302-1.25,1.257c-0.001,4.498-0.001,8.997-0.001,13.495c-0.001,0-0.001,0-0.002,0
			c0,4.517,0.001,9.034,0,13.551c0,0.943,0.308,1.263,1.249,1.263c6.397,0,12.795-0.001,19.192-0.004
			c0.836,0,1.161-0.329,1.161-1.176c0.001-6.674-0.006-13.348,0.013-20.021C39.166,42.239,38.958,42.119,38.455,42.131z
			 M20.365,39.979c0.057-0.276,0.302-0.54,0.522-0.746c0.109-0.103,0.35-0.087,0.531-0.087c1.951-0.008,3.902-0.009,5.854-0.009
			c0.146,0,0.296,0.008,0.438,0.041c0.446,0.104,0.717,0.361,0.689,0.852c-0.027,0.465-0.302,0.725-0.739,0.735
			c-1.085,0.025-2.17,0.008-3.256,0.008c0,0.011,0,0.023,0,0.034c-0.902,0-1.804,0.005-2.706-0.003
			c-0.256-0.002-0.518-0.012-0.767-0.066C20.538,40.651,20.288,40.35,20.365,39.979z M20.351,44.655
			c0.04-0.422,0.291-0.676,0.725-0.684c1.342-0.024,2.685-0.039,4.027-0.049c1.084-0.008,2.169-0.002,3.253-0.002
			c0,0.011,0,0.021,0,0.032c1.986,0,3.972,0.002,5.958-0.002c0.331-0.001,0.662-0.039,0.993-0.03
			c0.716,0.018,1.068,0.311,1.055,0.851c-0.012,0.504-0.37,0.793-1.053,0.8c-1.307,0.015-2.615,0.012-3.922,0.012
			c-3.241-0.001-6.482-0.003-9.722-0.01c-0.237,0-0.48-0.014-0.71-0.065C20.505,45.412,20.31,45.095,20.351,44.655z M21.369,48.729
			c2.341-0.003,4.681-0.001,7.022-0.001c2.322,0,4.645-0.001,6.967,0c0.656,0,0.989,0.257,1.004,0.76
			c0.015,0.512-0.36,0.86-0.999,0.861c-4.663,0.005-9.326,0.003-13.989-0.005c-0.666-0.001-1.032-0.312-1.032-0.821
			C20.343,48.99,20.672,48.73,21.369,48.729z M35.708,59.848c-0.173,0.047-0.366,0.034-0.549,0.034
			c-2.286,0.002-4.572,0.001-6.859,0.001c-2.231,0-4.462,0.001-6.693-0.001c-0.202,0-0.412,0.012-0.604-0.037
			c-0.442-0.115-0.714-0.399-0.655-0.882c0.054-0.442,0.336-0.692,0.779-0.71c0.497-0.02,0.995-0.005,1.493-0.005
			c4.167-0.001,8.334-0.002,12.501-0.002c0.166,0,0.334-0.01,0.497,0.011c0.437,0.058,0.711,0.302,0.739,0.753
			C36.386,59.465,36.124,59.734,35.708,59.848z M36.344,54.461c-0.136,0.513-0.543,0.657-1.024,0.658
			c-1.493,0.001-2.986,0.001-4.479,0.001c-2.967,0-5.935,0-8.902-0.001c-0.258,0-0.518,0.011-0.773-0.018
			c-0.534-0.059-0.847-0.396-0.826-0.855c0.022-0.472,0.344-0.756,0.9-0.758c1.548-0.007,3.096-0.003,4.644-0.003
			c0.829,0,1.659,0,2.488,0c2.341,0,4.681-0.003,7.022,0.002C36.07,53.49,36.489,53.915,36.344,54.461z"/>
	</g>
	<g>
		<path class="st0" d="M132.541,85.887c-2.341-0.005-4.681-0.002-7.022-0.002c-0.829,0-1.659,0-2.488,0c0.829,0,1.659,0,2.488,0
			C127.859,85.885,130.2,85.882,132.541,85.887z"/>
		<path class="st0" d="M125.517,53.488c-15.32-0.03-28.087,12.152-28.15,28.106c-0.06,15.189,12.08,28.047,28.05,28.146
			c15.261,0.095,27.691-12.146,28.156-27.055C154.26,67.191,141.914,53.521,125.517,53.488z M138.492,95.415
			c-0.002,1.893-1.31,3.179-3.209,3.18c-6.581,0.003-13.162,0.002-19.742-0.001c-1.657-0.001-3.023-1.338-3.034-3.012
			c-0.019-2.945-0.009-5.89-0.01-8.835c-0.001-1.62,0-3.24,0-4.859c-0.006,0-0.011,0-0.017,0c0-1.969,0.001-3.939,0-5.908
			c-0.001-1.767-0.011-3.534-0.007-5.301c0.002-1.122-0.024-2.248,0.047-3.366c0.088-1.38,1.484-2.663,2.87-2.667
			c4.645-0.013,9.291-0.022,13.936,0.021c0.463,0.004,1.026,0.268,1.366,0.594c2.42,2.322,4.795,4.692,7.184,7.048
			c0.428,0.423,0.622,0.928,0.622,1.538C138.49,81.036,138.498,88.225,138.492,95.415z"/>
		<path class="st0" d="M135.599,74.53c-1.198,0.029-2.397,0.029-3.595,0.014c-2.254-0.029-3.544-1.363-3.531-3.616
			c0.006-1.143-0.029-2.287,0.007-3.429c0.017-0.546-0.178-0.68-0.698-0.677c-3.945,0.02-7.891,0.012-11.836,0.015
			c-0.949,0.001-1.25,0.302-1.25,1.257c-0.001,4.498-0.001,8.997-0.001,13.495c-0.001,0-0.001,0-0.002,0
			c0,4.517,0.001,9.034,0,13.551c0,0.943,0.308,1.263,1.249,1.263c6.397,0,12.795-0.001,19.192-0.004
			c0.836,0,1.161-0.329,1.161-1.176c0.001-6.674-0.006-13.348,0.013-20.021C136.31,74.637,136.102,74.518,135.599,74.53z
			 M117.509,72.377c0.057-0.276,0.302-0.54,0.522-0.746c0.109-0.103,0.35-0.087,0.531-0.087c1.951-0.008,3.902-0.009,5.854-0.009
			c0.146,0,0.296,0.008,0.438,0.041c0.446,0.104,0.717,0.361,0.689,0.852c-0.027,0.465-0.302,0.725-0.739,0.735
			c-1.085,0.025-2.17,0.008-3.256,0.008c0,0.011,0,0.023,0,0.034c-0.902,0-1.804,0.005-2.706-0.003
			c-0.256-0.002-0.518-0.012-0.767-0.066C117.683,73.049,117.433,72.749,117.509,72.377z M117.495,77.054
			c0.04-0.422,0.291-0.676,0.725-0.684c1.342-0.024,2.685-0.039,4.027-0.049c1.084-0.008,2.169-0.002,3.253-0.002
			c0,0.011,0,0.021,0,0.032c1.986,0,3.972,0.002,5.958-0.002c0.331-0.001,0.662-0.039,0.993-0.03
			c0.716,0.018,1.068,0.311,1.055,0.851c-0.012,0.504-0.37,0.793-1.053,0.8c-1.307,0.015-2.615,0.012-3.922,0.012
			c-3.241-0.001-6.482-0.003-9.722-0.01c-0.237,0-0.48-0.014-0.71-0.065C117.65,77.811,117.454,77.494,117.495,77.054z
			 M118.514,81.128c2.341-0.003,4.681-0.001,7.022-0.001c2.322,0,4.645-0.001,6.967,0c0.656,0,0.989,0.257,1.004,0.76
			c0.016,0.512-0.36,0.86-0.999,0.861c-4.663,0.005-9.326,0.003-13.989-0.005c-0.666-0.001-1.032-0.312-1.032-0.821
			C117.488,81.389,117.817,81.129,118.514,81.128z M132.853,92.246c-0.173,0.047-0.366,0.034-0.549,0.034
			c-2.286,0.002-4.572,0.001-6.859,0.001c-2.231,0-4.462,0.001-6.693-0.001c-0.202,0-0.412,0.012-0.604-0.037
			c-0.442-0.115-0.714-0.399-0.655-0.882c0.054-0.442,0.336-0.692,0.779-0.71c0.497-0.02,0.995-0.005,1.493-0.005
			c4.167-0.001,8.334-0.002,12.501-0.002c0.166,0,0.334-0.01,0.497,0.011c0.437,0.058,0.711,0.302,0.739,0.753
			C133.531,91.864,133.268,92.132,132.853,92.246z M133.489,86.86c-0.136,0.513-0.543,0.657-1.024,0.658
			c-1.493,0.001-2.986,0.001-4.479,0.001c-2.967,0-5.935,0-8.902-0.001c-0.258,0-0.518,0.011-0.773-0.018
			c-0.534-0.059-0.847-0.396-0.826-0.855c0.022-0.472,0.344-0.756,0.9-0.758c1.548-0.007,3.096-0.003,4.644-0.003
			c0.829,0,1.659,0,2.488,0c2.341,0,4.681-0.003,7.022,0.002C133.215,85.888,133.634,86.313,133.489,86.86z"/>
	</g>
	<g>
		<path class="st0" d="M178.505,180.782c-2.341-0.005-4.681-0.002-7.022-0.002c-0.829,0-1.659,0-2.488,0c0.829,0,1.659,0,2.488,0
			C173.824,180.781,176.164,180.778,178.505,180.782z"/>
		<path class="st0" d="M171.482,148.384c-15.32-0.03-28.087,12.152-28.15,28.106c-0.06,15.189,12.08,28.047,28.05,28.146
			c15.261,0.095,27.691-12.146,28.156-27.055C200.224,162.087,187.878,148.416,171.482,148.384z M184.456,190.31
			c-0.002,1.893-1.31,3.179-3.209,3.18c-6.581,0.003-13.162,0.002-19.742-0.001c-1.657-0.001-3.023-1.338-3.034-3.012
			c-0.019-2.945-0.009-5.89-0.01-8.835c-0.001-1.62,0-3.24,0-4.859c-0.006,0-0.011,0-0.017,0c0-1.969,0.001-3.939,0-5.908
			c-0.001-1.767-0.011-3.534-0.007-5.301c0.002-1.122-0.024-2.248,0.047-3.366c0.088-1.38,1.484-2.663,2.87-2.667
			c4.645-0.013,9.291-0.022,13.936,0.021c0.463,0.004,1.026,0.268,1.366,0.594c2.42,2.322,4.795,4.693,7.184,7.048
			c0.428,0.423,0.622,0.928,0.622,1.538C184.454,175.932,184.462,183.121,184.456,190.31z"/>
		<path class="st0" d="M181.564,169.426c-1.198,0.029-2.397,0.029-3.595,0.014c-2.254-0.029-3.544-1.363-3.531-3.616
			c0.006-1.143-0.029-2.287,0.007-3.429c0.017-0.546-0.178-0.68-0.698-0.677c-3.945,0.02-7.891,0.012-11.836,0.015
			c-0.949,0.001-1.25,0.302-1.25,1.257c-0.001,4.498-0.001,8.997-0.001,13.495c-0.001,0-0.001,0-0.002,0
			c0,4.517,0.001,9.034,0,13.551c0,0.943,0.308,1.263,1.249,1.263c6.397,0,12.795-0.001,19.192-0.004
			c0.836,0,1.161-0.329,1.161-1.176c0.001-6.674-0.006-13.348,0.013-20.021C182.275,169.533,182.067,169.414,181.564,169.426z
			 M163.474,167.273c0.057-0.276,0.302-0.54,0.522-0.746c0.109-0.103,0.35-0.087,0.531-0.087c1.951-0.008,3.902-0.009,5.854-0.009
			c0.146,0,0.296,0.008,0.438,0.041c0.446,0.104,0.717,0.361,0.689,0.852c-0.027,0.465-0.302,0.725-0.739,0.735
			c-1.085,0.025-2.17,0.008-3.256,0.008c0,0.011,0,0.023,0,0.034c-0.902,0-1.804,0.005-2.706-0.003
			c-0.256-0.002-0.518-0.012-0.767-0.066C163.647,167.945,163.397,167.645,163.474,167.273z M163.46,171.95
			c0.04-0.422,0.291-0.676,0.725-0.684c1.342-0.024,2.685-0.039,4.027-0.049c1.084-0.008,2.169-0.002,3.253-0.002
			c0,0.011,0,0.021,0,0.032c1.986,0,3.972,0.002,5.958-0.002c0.331-0.001,0.662-0.039,0.993-0.03
			c0.716,0.018,1.068,0.311,1.055,0.851c-0.012,0.504-0.37,0.793-1.053,0.8c-1.307,0.015-2.615,0.012-3.922,0.012
			c-3.241-0.001-6.482-0.003-9.722-0.01c-0.237,0-0.48-0.014-0.71-0.065C163.614,172.706,163.419,172.389,163.46,171.95z
			 M164.478,176.024c2.341-0.003,4.681-0.001,7.022-0.001c2.322,0,4.645-0.001,6.967,0c0.656,0.001,0.989,0.257,1.004,0.76
			c0.015,0.512-0.36,0.86-0.999,0.861c-4.663,0.005-9.326,0.003-13.989-0.005c-0.666-0.001-1.032-0.312-1.032-0.821
			C163.452,176.284,163.781,176.024,164.478,176.024z M178.817,187.142c-0.173,0.047-0.366,0.034-0.549,0.034
			c-2.286,0.002-4.572,0.001-6.859,0.001c-2.231,0-4.462,0.001-6.693-0.001c-0.202,0-0.412,0.012-0.604-0.037
			c-0.442-0.115-0.714-0.399-0.655-0.882c0.054-0.442,0.336-0.692,0.779-0.71c0.497-0.02,0.995-0.005,1.493-0.005
			c4.167-0.001,8.334-0.002,12.501-0.002c0.166,0,0.334-0.01,0.497,0.011c0.437,0.058,0.711,0.302,0.739,0.753
			C179.495,186.76,179.233,187.028,178.817,187.142z M179.453,181.755c-0.136,0.513-0.543,0.657-1.024,0.658
			c-1.493,0.001-2.986,0.001-4.479,0.001c-2.967,0-5.935,0-8.902-0.001c-0.258,0-0.518,0.011-0.773-0.018
			c-0.534-0.059-0.847-0.396-0.826-0.855c0.022-0.472,0.344-0.756,0.9-0.758c1.548-0.007,3.096-0.003,4.644-0.003
			c0.829,0,1.659,0,2.488,0c2.341,0,4.681-0.003,7.022,0.002C179.179,180.784,179.598,181.209,179.453,181.755z"/>
	</g>
	<g>
		<path class="st0" d="M65.814,236.67c-2.341-0.005-4.681-0.002-7.022-0.002c-0.829,0-1.659,0-2.488,0c0.829,0,1.659,0,2.488,0
			C61.133,236.668,63.474,236.666,65.814,236.67z"/>
		<path class="st0" d="M58.791,204.272c-15.32-0.03-28.087,12.152-28.15,28.106c-0.06,15.189,12.08,28.047,28.05,28.146
			c15.261,0.095,27.691-12.146,28.156-27.055C87.534,217.975,75.188,204.304,58.791,204.272z M71.766,246.198
			c-0.002,1.893-1.31,3.179-3.209,3.18c-6.581,0.003-13.162,0.002-19.742-0.001c-1.657-0.001-3.023-1.338-3.034-3.012
			c-0.019-2.945-0.009-5.89-0.01-8.835c-0.001-1.62,0-3.24,0-4.859c-0.006,0-0.011,0-0.017,0c0-1.969,0.001-3.939,0-5.908
			c-0.001-1.767-0.011-3.534-0.007-5.301c0.002-1.122-0.024-2.248,0.047-3.366c0.088-1.38,1.484-2.663,2.87-2.667
			c4.645-0.013,9.291-0.022,13.936,0.021c0.463,0.004,1.026,0.268,1.366,0.594c2.42,2.322,4.795,4.692,7.184,7.048
			c0.428,0.423,0.622,0.928,0.622,1.538C71.764,231.82,71.772,239.009,71.766,246.198z"/>
		<path class="st0" d="M68.873,225.313c-1.198,0.029-2.397,0.029-3.595,0.014c-2.254-0.029-3.544-1.363-3.531-3.616
			c0.006-1.143-0.029-2.287,0.007-3.429c0.017-0.546-0.178-0.68-0.698-0.677c-3.945,0.02-7.891,0.012-11.836,0.015
			c-0.949,0.001-1.25,0.302-1.25,1.257c-0.001,4.498-0.001,8.997-0.001,13.495c-0.001,0-0.001,0-0.002,0
			c0,4.517,0.001,9.034,0,13.551c0,0.943,0.308,1.263,1.249,1.263c6.397,0,12.795-0.001,19.192-0.004
			c0.836,0,1.161-0.329,1.161-1.176c0.001-6.674-0.006-13.348,0.013-20.021C69.584,225.421,69.376,225.301,68.873,225.313z
			 M50.783,223.161c0.057-0.276,0.302-0.54,0.522-0.746c0.109-0.103,0.35-0.087,0.531-0.087c1.951-0.008,3.902-0.009,5.854-0.009
			c0.146,0,0.296,0.008,0.438,0.041c0.446,0.104,0.717,0.361,0.689,0.852c-0.027,0.465-0.302,0.725-0.739,0.735
			c-1.085,0.025-2.17,0.008-3.256,0.008c0,0.011,0,0.023,0,0.034c-0.902,0-1.804,0.005-2.706-0.003
			c-0.256-0.002-0.518-0.012-0.767-0.066C50.956,223.833,50.707,223.532,50.783,223.161z M50.769,227.837
			c0.04-0.422,0.291-0.676,0.725-0.684c1.342-0.024,2.685-0.039,4.027-0.049c1.084-0.008,2.169-0.002,3.253-0.002
			c0,0.011,0,0.021,0,0.032c1.986,0,3.972,0.002,5.958-0.002c0.331-0.001,0.662-0.039,0.993-0.03
			c0.716,0.018,1.068,0.311,1.055,0.851c-0.012,0.504-0.37,0.793-1.053,0.8c-1.307,0.015-2.615,0.012-3.922,0.012
			c-3.241-0.001-6.482-0.003-9.722-0.01c-0.237,0-0.48-0.014-0.71-0.065C50.923,228.594,50.728,228.277,50.769,227.837z
			 M51.788,231.911c2.341-0.003,4.681-0.001,7.022-0.001c2.322,0,4.645-0.001,6.967,0c0.656,0.001,0.989,0.257,1.004,0.76
			c0.015,0.512-0.36,0.86-0.999,0.861c-4.663,0.005-9.326,0.003-13.989-0.005c-0.666-0.001-1.032-0.312-1.032-0.821
			C50.761,232.172,51.09,231.912,51.788,231.911z M66.127,243.03c-0.173,0.047-0.366,0.034-0.549,0.034
			c-2.286,0.002-4.572,0.001-6.859,0.001c-2.231,0-4.462,0.001-6.693-0.001c-0.202,0-0.412,0.012-0.604-0.037
			c-0.442-0.115-0.714-0.399-0.655-0.882c0.054-0.442,0.336-0.692,0.779-0.71c0.497-0.02,0.995-0.005,1.493-0.005
			c4.167-0.001,8.334-0.002,12.501-0.002c0.166,0,0.334-0.01,0.497,0.011c0.437,0.058,0.711,0.302,0.739,0.753
			C66.805,242.647,66.542,242.916,66.127,243.03z M66.763,237.643c-0.136,0.513-0.543,0.657-1.024,0.658
			c-1.493,0.001-2.986,0.001-4.479,0.001c-2.967,0-5.935,0-8.902-0.001c-0.258,0-0.518,0.011-0.773-0.018
			c-0.534-0.059-0.847-0.396-0.826-0.855c0.022-0.472,0.344-0.756,0.9-0.758c1.548-0.007,3.096-0.003,4.644-0.003
			c0.829,0,1.659,0,2.488,0c2.341,0,4.681-0.003,7.022,0.002C66.489,236.672,66.908,237.097,66.763,237.643z"/>
	</g>
	<g>
		<path class="st0" d="M143.331,362c-2.341-0.005-4.681-0.002-7.022-0.002c-0.829,0-1.659,0-2.488,0c0.829,0,1.659,0,2.488,0
			C138.65,361.998,140.991,361.995,143.331,362z"/>
		<path class="st0" d="M136.308,329.602c-15.32-0.03-28.087,12.152-28.15,28.106c-0.06,15.189,12.08,28.047,28.05,28.146
			c15.261,0.095,27.691-12.146,28.156-27.055C165.051,343.304,152.705,329.634,136.308,329.602z M149.282,371.528
			c-0.002,1.893-1.31,3.179-3.209,3.18c-6.581,0.003-13.162,0.002-19.742-0.001c-1.657-0.001-3.023-1.338-3.034-3.012
			c-0.019-2.945-0.009-5.89-0.01-8.835c-0.001-1.62,0-3.24,0-4.859c-0.006,0-0.011,0-0.017,0c0-1.969,0.001-3.939,0-5.908
			c-0.001-1.767-0.011-3.534-0.007-5.301c0.002-1.122-0.024-2.248,0.047-3.366c0.088-1.38,1.484-2.663,2.87-2.667
			c4.645-0.013,9.291-0.022,13.936,0.021c0.463,0.004,1.026,0.268,1.366,0.594c2.42,2.322,4.795,4.692,7.184,7.048
			c0.428,0.423,0.622,0.928,0.622,1.538C149.281,357.15,149.289,364.339,149.282,371.528z"/>
		<path class="st0" d="M146.39,350.643c-1.198,0.029-2.397,0.029-3.595,0.014c-2.254-0.029-3.544-1.363-3.531-3.616
			c0.006-1.143-0.029-2.287,0.007-3.429c0.017-0.546-0.178-0.68-0.698-0.677c-3.945,0.02-7.891,0.012-11.836,0.015
			c-0.949,0.001-1.25,0.302-1.25,1.257c-0.001,4.498-0.001,8.997-0.001,13.495c-0.001,0-0.001,0-0.002,0
			c0,4.517,0.001,9.034,0,13.551c0,0.943,0.308,1.263,1.249,1.263c6.397,0,12.795-0.001,19.192-0.004
			c0.836,0,1.161-0.329,1.161-1.176c0.001-6.674-0.006-13.348,0.013-20.021C147.101,350.75,146.893,350.631,146.39,350.643z
			 M128.3,348.491c0.057-0.276,0.302-0.54,0.522-0.746c0.109-0.103,0.35-0.087,0.531-0.087c1.951-0.008,3.902-0.009,5.854-0.009
			c0.146,0,0.296,0.008,0.438,0.041c0.446,0.104,0.717,0.361,0.689,0.852c-0.027,0.465-0.302,0.725-0.739,0.735
			c-1.085,0.025-2.17,0.008-3.256,0.008c0,0.011,0,0.023,0,0.034c-0.902,0-1.804,0.005-2.706-0.003
			c-0.256-0.002-0.518-0.012-0.767-0.066C128.473,349.162,128.224,348.862,128.3,348.491z M128.286,353.167
			c0.04-0.422,0.291-0.676,0.725-0.684c1.342-0.024,2.685-0.039,4.027-0.049c1.084-0.008,2.169-0.002,3.253-0.002
			c0,0.011,0,0.021,0,0.032c1.986,0,3.972,0.002,5.958-0.002c0.331-0.001,0.662-0.039,0.993-0.03
			c0.716,0.018,1.068,0.311,1.055,0.851c-0.012,0.504-0.37,0.793-1.053,0.8c-1.307,0.015-2.615,0.012-3.922,0.012
			c-3.241-0.001-6.482-0.003-9.722-0.01c-0.237,0-0.48-0.014-0.71-0.065C128.44,353.924,128.245,353.607,128.286,353.167z
			 M129.305,357.241c2.341-0.003,4.681-0.001,7.022-0.001c2.322,0,4.645-0.001,6.967,0c0.656,0.001,0.989,0.257,1.004,0.76
			c0.015,0.512-0.36,0.86-0.999,0.861c-4.663,0.005-9.326,0.003-13.989-0.005c-0.666-0.001-1.032-0.312-1.032-0.821
			C128.278,357.502,128.607,357.242,129.305,357.241z M143.644,368.359c-0.173,0.047-0.366,0.034-0.549,0.034
			c-2.286,0.002-4.572,0.001-6.859,0.001c-2.231,0-4.462,0.001-6.693-0.001c-0.202,0-0.412,0.012-0.604-0.037
			c-0.442-0.115-0.714-0.399-0.655-0.882c0.054-0.442,0.336-0.692,0.779-0.71c0.497-0.02,0.995-0.005,1.493-0.005
			c4.167-0.001,8.334-0.002,12.501-0.002c0.166,0,0.334-0.01,0.497,0.011c0.437,0.058,0.711,0.302,0.739,0.753
			C144.322,367.977,144.059,368.246,143.644,368.359z M144.28,362.973c-0.136,0.513-0.543,0.657-1.024,0.658
			c-1.493,0.001-2.986,0.001-4.479,0.001c-2.967,0-5.935,0-8.902-0.001c-0.258,0-0.518,0.011-0.773-0.018
			c-0.534-0.059-0.847-0.396-0.826-0.855c0.022-0.472,0.344-0.756,0.9-0.758c1.548-0.007,3.096-0.003,4.644-0.003
			c0.829,0,1.659,0,2.488,0c2.341,0,4.681-0.003,7.022,0.002C144.006,362.001,144.424,362.427,144.28,362.973z"/>
	</g>
	<g>
		<path class="st0" d="M275.967,264.797c-2.341-0.005-4.681-0.002-7.022-0.002c-0.829,0-1.659,0-2.488,0c0.829,0,1.659,0,2.488,0
			C271.286,264.795,273.627,264.792,275.967,264.797z"/>
		<path class="st0" d="M268.944,232.399c-15.32-0.03-28.087,12.152-28.15,28.106c-0.06,15.189,12.08,28.047,28.05,28.146
			c15.261,0.095,27.691-12.146,28.156-27.055C297.686,246.101,285.341,232.431,268.944,232.399z M281.918,274.325
			c-0.002,1.893-1.31,3.179-3.209,3.18c-6.581,0.003-13.162,0.002-19.742-0.001c-1.657-0.001-3.023-1.338-3.034-3.012
			c-0.019-2.945-0.009-5.89-0.01-8.835c-0.001-1.62,0-3.24,0-4.859c-0.006,0-0.011,0-0.017,0c0-1.969,0.001-3.939,0-5.908
			c-0.001-1.767-0.011-3.534-0.007-5.301c0.002-1.122-0.024-2.248,0.047-3.366c0.088-1.38,1.484-2.663,2.87-2.667
			c4.645-0.013,9.291-0.022,13.936,0.021c0.463,0.004,1.026,0.268,1.366,0.594c2.42,2.322,4.795,4.692,7.184,7.048
			c0.428,0.423,0.622,0.928,0.622,1.538C281.917,259.946,281.925,267.136,281.918,274.325z"/>
		<path class="st0" d="M279.026,253.44c-1.198,0.029-2.397,0.029-3.595,0.014c-2.254-0.029-3.544-1.363-3.531-3.616
			c0.006-1.143-0.029-2.287,0.007-3.429c0.017-0.546-0.178-0.68-0.698-0.677c-3.945,0.02-7.891,0.012-11.836,0.015
			c-0.949,0.001-1.25,0.302-1.25,1.257c-0.001,4.498-0.001,8.997-0.001,13.495c-0.001,0-0.001,0-0.002,0
			c0,4.517,0.001,9.034,0,13.551c0,0.943,0.308,1.263,1.249,1.263c6.397,0,12.795-0.001,19.192-0.004
			c0.836,0,1.161-0.329,1.161-1.176c0.001-6.674-0.006-13.348,0.013-20.021C279.737,253.547,279.529,253.428,279.026,253.44z
			 M260.936,251.287c0.057-0.276,0.302-0.54,0.522-0.746c0.109-0.103,0.35-0.087,0.531-0.087c1.951-0.008,3.902-0.009,5.854-0.009
			c0.146,0,0.296,0.008,0.438,0.041c0.446,0.104,0.717,0.361,0.689,0.852c-0.027,0.465-0.302,0.725-0.739,0.735
			c-1.085,0.025-2.17,0.008-3.256,0.008c0,0.011,0,0.023,0,0.034c-0.902,0-1.804,0.005-2.706-0.003
			c-0.256-0.002-0.518-0.012-0.767-0.066C261.109,251.959,260.86,251.659,260.936,251.287z M260.922,255.964
			c0.04-0.422,0.291-0.676,0.725-0.684c1.342-0.024,2.685-0.039,4.027-0.049c1.084-0.008,2.169-0.002,3.253-0.002
			c0,0.011,0,0.021,0,0.032c1.986,0,3.972,0.002,5.958-0.002c0.331-0.001,0.662-0.039,0.993-0.03
			c0.716,0.018,1.068,0.311,1.055,0.851c-0.012,0.504-0.37,0.793-1.053,0.8c-1.307,0.015-2.615,0.012-3.922,0.012
			c-3.241-0.001-6.482-0.003-9.722-0.01c-0.237,0-0.48-0.014-0.71-0.065C261.076,256.721,260.881,256.404,260.922,255.964z
			 M261.94,260.038c2.341-0.003,4.681-0.001,7.022-0.001c2.322,0,4.645-0.001,6.967,0c0.656,0,0.989,0.257,1.004,0.76
			c0.016,0.512-0.36,0.86-0.999,0.861c-4.663,0.005-9.326,0.003-13.989-0.005c-0.666-0.001-1.032-0.312-1.032-0.821
			C260.914,260.299,261.243,260.039,261.94,260.038z M276.28,271.156c-0.173,0.047-0.366,0.034-0.549,0.034
			c-2.286,0.002-4.572,0.001-6.859,0.001c-2.231,0-4.462,0.001-6.693-0.001c-0.202,0-0.412,0.012-0.604-0.037
			c-0.442-0.115-0.714-0.399-0.655-0.882c0.054-0.442,0.336-0.692,0.779-0.71c0.497-0.02,0.995-0.005,1.493-0.005
			c4.167-0.001,8.334-0.002,12.501-0.002c0.166,0,0.334-0.01,0.497,0.011c0.437,0.058,0.711,0.302,0.739,0.753
			C276.958,270.774,276.695,271.043,276.28,271.156z M276.916,265.77c-0.136,0.513-0.543,0.657-1.024,0.658
			c-1.493,0.001-2.986,0.001-4.479,0.001c-2.967,0-5.935,0-8.902-0.001c-0.258,0-0.518,0.011-0.773-0.018
			c-0.534-0.059-0.847-0.396-0.826-0.855c0.022-0.472,0.344-0.756,0.9-0.758c1.548-0.007,3.096-0.003,4.645-0.003
			c0.829,0,1.659,0,2.488,0c2.341,0,4.681-0.003,7.022,0.002C276.642,264.798,277.06,265.224,276.916,265.77z"/>
	</g>
	<g>
		<path class="st0" d="M319.178,152.656c-2.341-0.005-4.681-0.002-7.022-0.002c-0.829,0-1.659,0-2.488,0c0.829,0,1.659,0,2.488,0
			C314.497,152.654,316.838,152.651,319.178,152.656z"/>
		<path class="st0" d="M312.155,120.257c-15.32-0.03-28.087,12.152-28.15,28.106c-0.06,15.189,12.08,28.047,28.05,28.146
			c15.261,0.095,27.691-12.146,28.156-27.055C340.897,133.96,328.552,120.29,312.155,120.257z M325.129,162.184
			c-0.002,1.893-1.31,3.179-3.209,3.18c-6.581,0.003-13.162,0.002-19.742-0.001c-1.657-0.001-3.023-1.338-3.034-3.012
			c-0.019-2.945-0.009-5.89-0.01-8.835c-0.001-1.62,0-3.24,0-4.859c-0.006,0-0.011,0-0.017,0c0-1.969,0.001-3.939,0-5.908
			c-0.001-1.767-0.011-3.534-0.007-5.301c0.002-1.122-0.024-2.248,0.047-3.366c0.088-1.38,1.484-2.663,2.87-2.667
			c4.645-0.013,9.291-0.022,13.936,0.021c0.463,0.004,1.026,0.268,1.366,0.594c2.42,2.322,4.795,4.692,7.184,7.048
			c0.428,0.423,0.622,0.928,0.622,1.538C325.128,147.805,325.136,154.994,325.129,162.184z"/>
		<path class="st0" d="M322.237,141.299c-1.198,0.029-2.397,0.029-3.595,0.014c-2.254-0.029-3.544-1.363-3.531-3.616
			c0.006-1.143-0.029-2.287,0.007-3.429c0.017-0.546-0.178-0.68-0.698-0.677c-3.945,0.02-7.891,0.012-11.836,0.015
			c-0.949,0.001-1.25,0.302-1.25,1.257c-0.001,4.498-0.001,8.997-0.001,13.495c-0.001,0-0.001,0-0.002,0
			c0,4.517,0.001,9.034,0,13.551c0,0.943,0.308,1.263,1.249,1.263c6.397,0,12.795-0.001,19.192-0.004
			c0.836,0,1.161-0.329,1.161-1.176c0.001-6.674-0.006-13.348,0.013-20.021C322.948,141.406,322.74,141.287,322.237,141.299z
			 M304.147,139.146c0.057-0.276,0.302-0.54,0.522-0.746c0.109-0.103,0.35-0.087,0.531-0.087c1.951-0.008,3.902-0.009,5.854-0.009
			c0.146,0,0.296,0.008,0.438,0.041c0.446,0.104,0.717,0.361,0.689,0.852c-0.027,0.465-0.302,0.725-0.739,0.735
			c-1.085,0.025-2.17,0.008-3.256,0.008c0,0.011,0,0.023,0,0.034c-0.902,0-1.804,0.005-2.706-0.003
			c-0.256-0.002-0.518-0.012-0.767-0.066C304.32,139.818,304.071,139.518,304.147,139.146z M304.133,143.823
			c0.04-0.422,0.291-0.676,0.725-0.684c1.342-0.024,2.685-0.039,4.027-0.049c1.084-0.008,2.169-0.002,3.253-0.002
			c0,0.011,0,0.021,0,0.032c1.986,0,3.972,0.002,5.958-0.002c0.331-0.001,0.662-0.039,0.993-0.03
			c0.716,0.018,1.068,0.311,1.055,0.851c-0.012,0.504-0.37,0.793-1.053,0.8c-1.307,0.015-2.615,0.012-3.922,0.012
			c-3.241-0.001-6.482-0.003-9.722-0.01c-0.237,0-0.48-0.014-0.71-0.065C304.287,144.58,304.092,144.263,304.133,143.823z
			 M305.151,147.897c2.341-0.003,4.681-0.001,7.022-0.001c2.322,0,4.645-0.001,6.967,0c0.656,0.001,0.989,0.257,1.004,0.76
			c0.016,0.512-0.36,0.86-0.999,0.861c-4.663,0.005-9.326,0.003-13.989-0.005c-0.666-0.001-1.032-0.312-1.032-0.821
			C304.125,148.158,304.454,147.898,305.151,147.897z M319.491,159.015c-0.173,0.047-0.366,0.034-0.549,0.034
			c-2.286,0.002-4.572,0.001-6.859,0.001c-2.231,0-4.462,0.001-6.693-0.001c-0.202,0-0.412,0.012-0.604-0.037
			c-0.442-0.115-0.714-0.399-0.655-0.882c0.054-0.442,0.336-0.692,0.779-0.71c0.497-0.02,0.995-0.005,1.493-0.005
			c4.167-0.001,8.334-0.002,12.501-0.002c0.166,0,0.334-0.01,0.497,0.011c0.437,0.058,0.711,0.302,0.739,0.753
			C320.169,158.633,319.906,158.901,319.491,159.015z M320.127,153.629c-0.136,0.513-0.543,0.657-1.024,0.658
			c-1.493,0.001-2.986,0.001-4.479,0.001c-2.967,0-5.935,0-8.902-0.001c-0.258,0-0.518,0.011-0.773-0.018
			c-0.534-0.059-0.847-0.396-0.826-0.855c0.022-0.472,0.344-0.756,0.9-0.758c1.548-0.007,3.096-0.003,4.645-0.003
			c0.829,0,1.659,0,2.488,0c2.341,0,4.681-0.003,7.022,0.002C319.853,152.657,320.271,153.082,320.127,153.629z"/>
	</g>
	<g>
		<path class="st0" d="M378.94,32.398c-2.341-0.005-4.681-0.002-7.022-0.002c-0.829,0-1.659,0-2.488,0c0.829,0,1.659,0,2.488,0
			C374.259,32.397,376.599,32.394,378.94,32.398z"/>
		<path class="st0" d="M371.917,0c-15.32-0.03-28.087,12.152-28.15,28.106c-0.06,15.189,12.08,28.047,28.05,28.146
			c15.261,0.095,27.691-12.146,28.156-27.055C400.659,13.703,388.313,0.032,371.917,0z M384.891,41.926
			c-0.002,1.893-1.31,3.179-3.209,3.18c-6.581,0.003-13.162,0.002-19.742-0.001c-1.657-0.001-3.023-1.338-3.034-3.012
			c-0.019-2.945-0.009-5.89-0.01-8.835c-0.001-1.62,0-3.24,0-4.859c-0.006,0-0.011,0-0.017,0c0-1.969,0.001-3.939,0-5.908
			c-0.001-1.767-0.011-3.534-0.007-5.301c0.002-1.122-0.024-2.248,0.047-3.366c0.088-1.38,1.484-2.663,2.87-2.667
			c4.645-0.013,9.291-0.022,13.936,0.021c0.463,0.004,1.026,0.268,1.366,0.594c2.42,2.322,4.795,4.692,7.184,7.048
			c0.428,0.423,0.622,0.928,0.622,1.538C384.889,27.548,384.897,34.737,384.891,41.926z"/>
		<path class="st0" d="M381.999,21.042c-1.198,0.029-2.397,0.029-3.595,0.014c-2.254-0.029-3.544-1.363-3.531-3.616
			c0.006-1.143-0.029-2.287,0.007-3.429c0.017-0.546-0.178-0.68-0.698-0.677c-3.945,0.02-7.891,0.012-11.836,0.015
			c-0.949,0.001-1.25,0.302-1.25,1.257c-0.001,4.498-0.001,8.997-0.001,13.495c-0.001,0-0.001,0-0.002,0
			c0,4.517,0.001,9.034,0,13.551c0,0.943,0.308,1.263,1.249,1.263c6.397,0,12.795-0.001,19.192-0.004
			c0.836,0,1.161-0.329,1.161-1.176c0.001-6.674-0.006-13.348,0.013-20.021C382.71,21.149,382.502,21.03,381.999,21.042z
			 M363.909,18.889c0.057-0.276,0.302-0.54,0.522-0.746c0.109-0.103,0.35-0.087,0.531-0.087c1.951-0.008,3.902-0.009,5.854-0.009
			c0.146,0,0.296,0.008,0.438,0.041c0.446,0.104,0.717,0.361,0.689,0.852c-0.027,0.465-0.302,0.725-0.739,0.735
			c-1.085,0.025-2.17,0.008-3.256,0.008c0,0.011,0,0.023,0,0.034c-0.902,0-1.804,0.005-2.706-0.003
			c-0.256-0.002-0.518-0.012-0.767-0.066C364.082,19.561,363.832,19.261,363.909,18.889z M363.895,23.566
			c0.04-0.422,0.291-0.676,0.725-0.684c1.342-0.024,2.685-0.039,4.027-0.049c1.084-0.008,2.169-0.002,3.253-0.002
			c0,0.011,0,0.021,0,0.032c1.986,0,3.972,0.002,5.958-0.002c0.331-0.001,0.662-0.039,0.993-0.03
			c0.716,0.018,1.068,0.311,1.055,0.851c-0.012,0.504-0.37,0.793-1.053,0.8c-1.307,0.015-2.615,0.012-3.922,0.012
			c-3.241-0.001-6.482-0.003-9.722-0.01c-0.237,0-0.48-0.014-0.71-0.065C364.049,24.322,363.854,24.005,363.895,23.566z
			 M364.913,27.64c2.341-0.003,4.681-0.001,7.022-0.001c2.322,0,4.645-0.001,6.967,0c0.656,0,0.989,0.257,1.004,0.76
			c0.016,0.512-0.361,0.86-0.999,0.861c-4.663,0.005-9.326,0.003-13.989-0.005c-0.666-0.001-1.032-0.312-1.032-0.821
			C363.887,27.9,364.216,27.64,364.913,27.64z M379.252,38.758c-0.173,0.047-0.366,0.034-0.549,0.034
			c-2.286,0.002-4.572,0.001-6.859,0.001c-2.231,0-4.462,0.001-6.693-0.001c-0.202,0-0.412,0.012-0.604-0.037
			c-0.442-0.115-0.714-0.399-0.655-0.882c0.054-0.442,0.336-0.692,0.779-0.71c0.497-0.02,0.995-0.005,1.493-0.005
			c4.167-0.001,8.334-0.002,12.501-0.002c0.166,0,0.334-0.01,0.497,0.011c0.437,0.058,0.711,0.302,0.739,0.753
			C379.93,38.376,379.668,38.644,379.252,38.758z M379.888,33.371c-0.136,0.513-0.543,0.657-1.024,0.658
			c-1.493,0.001-2.986,0.001-4.479,0.001c-2.967,0-5.935,0-8.902-0.001c-0.258,0-0.518,0.011-0.773-0.018
			c-0.534-0.059-0.847-0.396-0.826-0.855c0.022-0.472,0.344-0.756,0.9-0.758c1.548-0.007,3.096-0.003,4.645-0.003
			c0.829,0,1.659,0,2.488,0c2.341,0,4.681-0.003,7.022,0.002C379.614,32.4,380.033,32.825,379.888,33.371z"/>
	</g>
	<g>
		<path class="st0" d="M357.324,375.787c-2.341-0.005-4.681-0.002-7.022-0.002c-0.829,0-1.659,0-2.488,0c0.829,0,1.659,0,2.488,0
			C352.642,375.786,354.983,375.783,357.324,375.787z"/>
		<path class="st0" d="M350.3,343.389c-15.32-0.03-28.087,12.152-28.15,28.106c-0.06,15.189,12.08,28.047,28.05,28.146
			c15.261,0.095,27.691-12.146,28.156-27.055C379.043,357.092,366.697,343.421,350.3,343.389z M363.275,385.315
			c-0.002,1.893-1.31,3.179-3.209,3.18c-6.581,0.003-13.162,0.002-19.742-0.001c-1.657-0.001-3.023-1.338-3.034-3.012
			c-0.019-2.945-0.009-5.89-0.01-8.835c-0.001-1.62,0-3.24,0-4.859c-0.006,0-0.011,0-0.017,0c0-1.969,0.001-3.939,0-5.908
			c-0.001-1.767-0.011-3.534-0.007-5.301c0.002-1.122-0.024-2.248,0.047-3.366c0.088-1.38,1.484-2.663,2.87-2.667
			c4.645-0.013,9.291-0.022,13.936,0.021c0.463,0.004,1.026,0.268,1.366,0.594c2.42,2.322,4.795,4.692,7.184,7.048
			c0.428,0.423,0.622,0.928,0.622,1.538C363.273,370.937,363.281,378.126,363.275,385.315z"/>
		<path class="st0" d="M360.383,364.431c-1.198,0.029-2.397,0.029-3.595,0.014c-2.254-0.029-3.544-1.363-3.531-3.616
			c0.006-1.143-0.029-2.287,0.007-3.429c0.017-0.546-0.178-0.68-0.698-0.677c-3.945,0.02-7.891,0.012-11.836,0.015
			c-0.949,0.001-1.25,0.302-1.25,1.257c-0.001,4.498-0.001,8.997-0.001,13.495c-0.001,0-0.001,0-0.002,0
			c0,4.517,0.001,9.034,0,13.551c0,0.943,0.308,1.263,1.249,1.263c6.397,0,12.795-0.001,19.192-0.004
			c0.836,0,1.161-0.329,1.161-1.176c0.001-6.674-0.006-13.348,0.013-20.021C361.093,364.538,360.885,364.418,360.383,364.431z
			 M342.292,362.278c0.057-0.276,0.302-0.54,0.522-0.746c0.109-0.103,0.35-0.087,0.531-0.087c1.951-0.008,3.902-0.009,5.854-0.009
			c0.146,0,0.296,0.008,0.438,0.041c0.446,0.104,0.717,0.361,0.689,0.852c-0.027,0.465-0.302,0.725-0.739,0.735
			c-1.085,0.025-2.17,0.008-3.256,0.008c0,0.011,0,0.023,0,0.034c-0.902,0-1.804,0.005-2.706-0.003
			c-0.256-0.002-0.518-0.012-0.767-0.066C342.466,362.95,342.216,362.65,342.292,362.278z M342.279,366.955
			c0.04-0.422,0.291-0.676,0.725-0.684c1.342-0.024,2.685-0.039,4.027-0.049c1.084-0.008,2.169-0.002,3.253-0.002
			c0,0.011,0,0.021,0,0.032c1.986,0,3.972,0.002,5.958-0.002c0.331-0.001,0.662-0.039,0.993-0.03
			c0.716,0.018,1.068,0.311,1.055,0.851c-0.012,0.504-0.37,0.793-1.053,0.8c-1.307,0.015-2.615,0.012-3.922,0.012
			c-3.241-0.001-6.482-0.003-9.722-0.01c-0.237,0-0.48-0.014-0.71-0.065C342.433,367.711,342.237,367.394,342.279,366.955z
			 M343.297,371.029c2.341-0.003,4.681-0.001,7.022-0.001c2.322,0,4.645-0.001,6.967,0c0.656,0.001,0.989,0.257,1.004,0.76
			c0.016,0.512-0.36,0.86-0.999,0.861c-4.663,0.005-9.326,0.003-13.989-0.005c-0.666-0.001-1.032-0.312-1.032-0.821
			C342.271,371.289,342.6,371.029,343.297,371.029z M357.636,382.147c-0.173,0.047-0.366,0.034-0.549,0.034
			c-2.286,0.002-4.572,0.001-6.859,0.001c-2.231,0-4.462,0.001-6.693-0.001c-0.202,0-0.412,0.012-0.604-0.037
			c-0.442-0.115-0.714-0.399-0.655-0.882c0.054-0.442,0.336-0.692,0.779-0.71c0.497-0.02,0.995-0.005,1.493-0.005
			c4.167-0.001,8.334-0.002,12.501-0.002c0.166,0,0.334-0.01,0.497,0.011c0.437,0.058,0.711,0.302,0.739,0.753
			C358.314,381.764,358.051,382.033,357.636,382.147z M358.272,376.76c-0.136,0.513-0.543,0.657-1.024,0.658
			c-1.493,0.001-2.986,0.001-4.479,0.001c-2.967,0-5.935,0-8.902-0.001c-0.258,0-0.518,0.011-0.773-0.018
			c-0.534-0.059-0.847-0.396-0.826-0.855c0.022-0.472,0.344-0.756,0.9-0.758c1.548-0.007,3.096-0.003,4.645-0.003
			c0.829,0,1.659,0,2.488,0c2.341,0,4.681-0.003,7.022,0.002C357.998,375.789,358.417,376.214,358.272,376.76z"/>
	</g>
</g>
<g id="Layer_2">
	<line class="st1" x1="55.576" y1="56.253" x2="98.834" y2="72.61"/>
	<line class="st1" x1="149.179" y1="72.61" x2="343.766" y2="28.106"/>
	<line class="st1" x1="353.244" y1="49.216" x2="327.667" y2="128.434"/>
	<line class="st1" x1="136.309" y1="107.598" x2="164.391" y2="149.269"/>
	<line class="st1" x1="28.272" y1="77.343" x2="58.791" y2="204.272"/>
	<line class="st1" x1="69.583" y1="258.381" x2="117.282" y2="336.937"/>
	<line class="st1" x1="162.05" y1="346.421" x2="244.964" y2="275.313"/>
	<line class="st1" x1="159" y1="361.997" x2="322.15" y2="371.495"/>
	<line class="st1" x1="371.816" y1="56.253" x2="361.058" y2="346.421"/>
	<line class="st1" x1="340.238" y1="346.421" x2="292.844" y2="275.313"/>
	<line class="st1" x1="279.735" y1="234.545" x2="312.055" y2="176.51"/>
	<line class="st1" x1="136.308" y1="329.602" x2="162.05" y2="203.026"/>
	<line class="st1" x1="195.383" y1="191.298" x2="248.527" y2="241.099"/>
	<line class="st1" x1="284.005" y1="148.364" x2="195.383" y2="176.508"/>
	<line class="st1" x1="84.919" y1="222.033" x2="143.645" y2="180.782"/>
	<line class="st1" x1="147.099" y1="81.615" x2="292.844" y2="127.861"/>
	<line class="st1" x1="268.944" y1="232.399" x2="149.179" y2="91.99"/>
</g>
</svg>
